#!OML:ASF F:\VICON\USERDATA\INSTALL\Justin_Nancy\Justin_Nancy.ASF
:FULLY-SPECIFIED
:DEGREES
51
root 0.424613 16.6296 -20.352 23.4662 -6.28984 1.68257
lowerback 13.853 -2.19397 -5.32278
upperback 1.74881 -3.54479 2.37158
thorax -5.42677 -1.60902 6.17147
lowerneck -22.4913 -0.546374 -8.40902
upperneck -0.512328 0.833973 9.637
head 3.29822 0.938522 4.46891
rclavicle 3.22528e-014 -3.29983e-014
rhumerus -73.4634 3.30891 -77.7184
rradius 95.6244
rwrist -13.3977
rhand -27.1871 35.8097
rfingers 7.12502
rthumb -0.60084 5.83081
lclavicle 3.22528e-014 -3.29983e-014
lhumerus -21.4802 -11.7806 83.5085
lradius 127.181
lwrist 28.7553
lhand -18.5445 9.751
lfingers 7.12502
lthumb 7.74481 39.5892
rfemur -64.3897 -0.240949 18.1324
rtibia 78.3842
rfoot -9.26386 4.50156
rtoes -18.3665
lfemur -4.3602 -4.69775 -24.4146
ltibia 31.1863
lfoot 5.5751 -7.13308
ltoes -28.0513
52
root 0.406402 16.7047 -19.9607 23.412 -6.98851 1.63676
lowerback 13.8659 -2.04375 -5.38901
upperback 1.63423 -3.36193 2.33781
thorax -5.58038 -1.50912 6.14849
lowerneck -22.2928 -0.511526 -8.55246
upperneck -0.487287 0.906788 9.56857
head 3.26919 0.965872 4.47366
rclavicle -2.62396e-014 2.44505e-014
rhumerus -73.9287 2.98057 -77.646
rradius 95.6651
rwrist -13.7057
rhand -27.1595 35.7259
rfingers 7.12502
rthumb -0.574153 5.74689
lclavicle -2.62396e-014 2.44505e-014
lhumerus -22.1488 -12.6765 83.674
lradius 127.846
lwrist 27.4334
lhand -18.9263 8.46534
lfingers 7.12502
lthumb 7.37633 38.3168
rfemur -64.3603 0.142188 18.171
rtibia 75.7283
rfoot -9.75769 4.92991
rtoes -18.4486
lfemur -2.77351 -5.78913 -24.7327
ltibia 29.2727
lfoot 14.8649 -6.07598
ltoes -20.7148
53
root 0.392697 16.748 -19.5742 23.3824 -7.77768 1.83023
lowerback 13.6817 -1.86695 -5.57709
upperback 1.60892 -3.16228 2.12087
thorax -5.53639 -1.41052 5.97901
lowerneck -22.1184 -0.491612 -8.4549
upperneck -0.617315 0.90903 9.45314
head 3.20358 0.956202 4.41691
rclavicle -4.70126e-014 2.4699e-014
rhumerus -73.9762 2.44425 -77.6419
rradius 95.4092
rwrist -13.958
rhand -26.4964 36.0822
rfingers 7.12502
rthumb 0.0662737 6.10248
lclavicle -4.70126e-014 2.4699e-014
lhumerus -22.9171 -13.8825 83.7358
lradius 128.207
lwrist 26.309
lhand -18.1952 7.33715
lfingers 7.12502
lthumb 8.08191 37.1626
rfemur -64.4238 0.385139 17.9521
rtibia 73.3538
rfoot -10.1623 5.46828
rtoes -18.1813
lfemur -1.50913 -7.31155 -25.4558
ltibia 27.7251
lfoot 23.0729 -4.29829
ltoes -13.1514
54
root 0.389744 16.783 -19.191 23.2053 -8.42677 1.67499
lowerback 13.7858 -1.77124 -5.28624
upperback 1.62591 -3.00561 1.99346
thorax -5.62029 -1.33815 5.65554
lowerneck -21.7583 -0.411017 -8.46583
upperneck -0.930279 1.01405 9.37488
head 3.04557 0.994982 4.39409
rclavicle 5.58088e-014 -4.81059e-014
rhumerus -73.949 2.21818 -77.8474
rradius 95.4558
rwrist -14.0624
rhand -26.2514 35.6998
rfingers 7.12502
rthumb 0.302935 5.72026
lclavicle 5.58088e-014 -4.81059e-014
lhumerus -23.8224 -15.0424 83.8386
lradius 128.348
lwrist 25.0659
lhand -17.7229 7.93787
lfingers 7.12502
lthumb 8.53773 37.7453
rfemur -64.0748 0.603327 18.18
rtibia 71.1137
rfoot -10.479 5.68125
rtoes -18.7813
lfemur -0.297055 -8.9875 -25.9639
ltibia 26.879
lfoot 26.7946 -4.25404
ltoes -15.01
55
root 0.38458 16.8198 -18.813 22.9157 -8.91539 1.65525
lowerback 14.2422 -1.74852 -5.13494
upperback 1.60704 -2.97762 1.94634
thorax -5.907 -1.31613 5.54065
lowerneck -21.6716 -0.352686 -8.71411
upperneck -0.867195 1.14598 9.35457
head 3.03832 1.05737 4.43799
rclavicle 3.926e-015 1.42131e-014
rhumerus -73.6537 2.23735 -78.0185
rradius 95.4301
rwrist -14.1929
rhand -26.394 35.232
rfingers 7.12502
rthumb 0.165243 5.25233
lclavicle 3.926e-015 1.42131e-014
lhumerus -24.6897 -15.9978 83.9829
lradius 128.14
lwrist 24.2746
lhand -17.1202 9.17505
lfingers 7.12502
lthumb 9.11935 38.9579
rfemur -63.4761 0.690374 18.3025
rtibia 69.1016
rfoot -10.524 5.86805
rtoes -18.4106
lfemur 0.533729 -10.3385 -26.5466
ltibia 26.9177
lfoot 27.9472 -6.187
ltoes -20.3882
56
root 0.378361 16.8452 -18.4374 22.6912 -9.41405 1.93605
lowerback 14.6532 -1.69267 -5.3173
upperback 1.51763 -2.95866 1.88053
thorax -6.22682 -1.28784 5.59731
lowerneck -21.7914 -0.40817 -8.96128
upperneck -0.600873 1.13401 9.28753
head 3.13568 1.05003 4.45991
rclavicle -1.20762e-014 -2.3059e-014
rhumerus -73.2248 2.28368 -78.1166
rradius 95.4644
rwrist -14.3497
rhand -26.4439 34.6374
rfingers 7.12502
rthumb 0.116975 4.65767
lclavicle -1.20762e-014 -2.3059e-014
lhumerus -25.6426 -16.9344 84.3024
lradius 127.526
lwrist 23.7536
lhand -17.6328 9.96525
lfingers 7.12502
lthumb 8.62473 39.7691
rfemur -62.9521 0.701646 18.0896
rtibia 67.3423
rfoot -10.4209 5.96591
rtoes -16.8692
lfemur 0.727759 -10.8122 -27.2692
ltibia 27.7421
lfoot 29.0646 -9.12462
ltoes -18.9788
57
root 0.370872 16.8621 -18.0622 22.5749 -9.97266 2.207
lowerback 14.8356 -1.55339 -5.48751
upperback 1.4358 -2.82059 1.78204
thorax -6.43082 -1.20682 5.57602
lowerneck -21.9919 -0.475047 -9.07315
upperneck -0.329594 1.08727 9.10456
head 3.24963 1.02044 4.42078
rclavicle 5.69021e-015 4.30866e-014
rhumerus -72.6294 2.02116 -78.2282
rradius 95.3562
rwrist -14.4171
rhand -26.2479 34.6371
rfingers 7.12502
rthumb 0.30634 4.65758
lclavicle 5.69021e-015 4.30866e-014
lhumerus -26.7001 -18.122 84.8675
lradius 126.684
lwrist 23.5054
lhand -18.7243 9.55123
lfingers 7.12502
lthumb 7.57127 39.3957
rfemur -62.5267 0.782997 17.844
rtibia 65.9037
rfoot -10.1815 5.76376
rtoes -14.9894
lfemur 0.428079 -10.5085 -27.8633
ltibia 29.3301
lfoot 30.019 -11.0371
ltoes -9.18064
58
root 0.3606 16.8883 -17.6868 22.3724 -10.5371 2.67784
lowerback 15.0405 -1.35347 -5.82034
upperback 1.44492 -2.63593 1.59834
thorax -6.55319 -1.10515 5.54343
lowerneck -22.497 -0.492513 -9.11313
upperneck -0.0318284 1.11831 8.8408
head 3.40819 1.03072 4.35512
rclavicle 5.31298e-014 -1.51147e-014
rhumerus -71.677 1.42676 -78.3785
rradius 94.9843
rwrist -14.6069
rhand -25.7272 35.1192
rfingers 7.12502
rthumb 0.809185 5.14097
lclavicle 5.31298e-014 -1.51147e-014
lhumerus -27.8008 -19.4182 85.5078
lradius 125.568
lwrist 23.7708
lhand -18.4879 8.59321
lfingers 7.12502
lthumb 7.79948 38.4294
rfemur -62.1083 0.860348 17.3579
rtibia 64.7816
rfoot -9.62691 5.07801
rtoes -15.7586
lfemur -0.0579694 -9.95793 -28.6173
ltibia 31.5359
lfoot 29.9263 -11.7043
ltoes 1.22945
59
root 0.346128 16.8959 -17.3233 22.0517 -10.7993 3.05
lowerback 15.236 -1.21295 -5.91917
upperback 1.67949 -2.48573 1.41527
thorax -6.43351 -1.04232 5.37538
lowerneck -23.3515 -0.563241 -9.08827
upperneck 0.357052 1.08664 8.59732
head 3.65102 1.01667 4.28603
rclavicle -1.20513e-014 5.76476e-015
rhumerus -70.1367 0.632037 -78.7139
rradius 94.5023
rwrist -14.6116
rhand -25.3885 35.0928
rfingers 7.12502
rthumb 1.13636 5.11612
lclavicle -1.20513e-014 5.76476e-015
lhumerus -28.7118 -20.6343 85.9995
lradius 124.195
lwrist 24.289
lhand -17.2236 8.91576
lfingers 7.12502
lthumb 9.01955 38.7029
rfemur -61.1475 0.935942 16.9134
rtibia 64.1126
rfoot -9.73479 3.80198
rtoes -15.2082
lfemur -0.657695 -9.4724 -29.095
ltibia 34.3616
lfoot 29.1693 -11.3993
ltoes 11.1729
60
root 0.328972 16.9005 -16.9617 21.7714 -10.7975 3.21546
lowerback 15.3766 -1.19219 -5.75956
upperback 1.93449 -2.43973 1.32598
thorax -6.25395 -1.03838 5.17786
lowerneck -23.6102 -0.635466 -9.13739
upperneck 0.272619 1.04389 8.39374
head 3.6629 0.98777 4.22685
rclavicle 3.50606e-014 -2.66371e-014
rhumerus -68.3879 0.143317 -79.2184
rradius 94.1175
rwrist -14.8315
rhand -25.3055 34.4914
rfingers 7.12502
rthumb 1.2165 4.51509
lclavicle 3.50606e-014 -2.66371e-014
lhumerus -29.8122 -21.4758 86.4923
lradius 122.708
lwrist 24.674
lhand -16.5201 9.93756
lfingers 7.12502
lthumb 9.69835 39.6943
rfemur -60.112 1.08563 16.656
rtibia 63.6417
rfoot -9.43409 2.31309
rtoes -15.5856
lfemur -1.62561 -9.04621 -29.1349
ltibia 37.7021
lfoot 28.2827 -10.4096
ltoes 16.2098
61
root 0.307185 16.8923 -16.6061 21.5843 -10.794 3.24409
lowerback 15.5525 -1.19858 -5.6949
upperback 2.02041 -2.43884 1.41829
thorax -6.25705 -1.04042 5.24575
lowerneck -23.4586 -0.624523 -9.21984
upperneck 0.107082 1.10232 8.01263
head 3.58126 0.990213 4.11799
rclavicle -1.00883e-014 -9.74045e-015
rhumerus -66.7025 0.104464 -79.6803
rradius 93.7307
rwrist -15.3151
rhand -25.3831 34.0032
rfingers 7.12502
rthumb 1.14155 4.0265
lclavicle -1.00883e-014 -9.74045e-015
lhumerus -31.2055 -22.0133 87.1635
lradius 121.088
lwrist 24.5423
lhand -16.0478 10.7296
lfingers 7.12502
lthumb 10.1541 40.4646
rfemur -59.1738 1.43114 16.4595
rtibia 63.4589
rfoot -8.31706 0.944299
rtoes -12.0498
lfemur -2.99594 -8.64579 -28.9504
ltibia 41.5891
lfoot 26.0498 -9.90922
ltoes 10.2617
62
root 0.281532 16.8751 -16.2504 21.3645 -10.7517 3.26576
lowerback 15.9211 -1.20524 -5.77475
upperback 1.93783 -2.46922 1.62435
thorax -6.53167 -1.03755 5.54025
lowerneck -23.0941 -0.53965 -9.30052
upperneck -0.0663435 1.24724 7.49948
head 3.45963 1.02467 3.97124
rclavicle 1.49089e-015 -2.08724e-014
rhumerus -65.0693 0.203626 -80.0873
rradius 93.0606
rwrist -15.6088
rhand -25.4036 33.478
rfingers 7.12502
rthumb 1.1218 3.5012
lclavicle 1.49089e-015 -2.08724e-014
lhumerus -32.9432 -22.3116 88.2357
lradius 119.145
lwrist 23.9475
lhand -16.122 12.0963
lfingers 7.12502
lthumb 10.0824 41.8348
rfemur -58.0627 1.87863 16.1947
rtibia 63.6042
rfoot -7.86433 -0.0827823
rtoes -9.99156
lfemur -4.56676 -8.22779 -28.7091
ltibia 45.8418
lfoot 23.1335 -10.1747
ltoes -0.122713
63
root 0.251401 16.8598 -15.8879 21.1744 -10.4249 3.07133
lowerback 16.2064 -1.2424 -5.44347
upperback 1.98725 -2.4614 1.80325
thorax -6.64236 -1.03662 5.55523
lowerneck -22.8272 -0.517234 -9.36887
upperneck -0.452349 1.30704 7.14912
head 3.29466 1.03193 3.86751
rclavicle -1.56046e-014 1.2424e-014
rhumerus -63.0511 -0.054569 -80.5871
rradius 92.1399
rwrist -15.6794
rhand -25.6526 32.8624
rfingers 7.12502
rthumb 0.881319 2.88447
lclavicle -1.56046e-014 1.2424e-014
lhumerus -34.4553 -22.6562 89.078
lradius 116.957
lwrist 23.3309
lhand -16.1222 12.6033
lfingers 7.12502
lthumb 10.0823 42.3418
rfemur -56.6312 2.21482 16.2813
rtibia 64.0535
rfoot -8.50746 -0.872262
rtoes -11.4318
lfemur -6.49438 -7.90508 -28.047
ltibia 50.3818
lfoot 20.8742 -10.2443
ltoes -5.23517
64
root 0.207928 16.8296 -15.5255 20.9779 -10.0681 2.8267
lowerback 16.2695 -1.26478 -5.18166
upperback 2.22031 -2.42976 1.99619
thorax -6.43233 -1.03971 5.60283
lowerneck -22.7959 -0.540175 -9.47742
upperneck -0.764189 1.32896 6.86904
head 3.18923 1.02877 3.79365
rclavicle 2.98177e-015 1.05356e-014
rhumerus -60.603 -0.33806 -81.1756
rradius 91.1773
rwrist -15.7735
rhand -25.5814 32.5138
rfingers 7.12502
rthumb 0.950026 2.53615
lclavicle 2.98177e-015 1.05356e-014
lhumerus -35.5103 -22.8831 89.659
lradius 114.483
lwrist 22.6947
lhand -16.5195 12.9473
lfingers 7.12502
lthumb 9.69892 42.704
rfemur -55.0929 2.64715 16.49
rtibia 64.8066
rfoot -9.29333 -1.54336
rtoes -13.8243
lfemur -8.73042 -7.39805 -27.1991
ltibia 55.0799
lfoot 19.7116 -10.8683
ltoes -6.64684
65
root 0.166928 16.7908 -15.1682 20.7063 -9.41265 2.34969
lowerback 16.486 -1.38015 -4.54948
upperback 2.47994 -2.45851 2.24024
thorax -6.28389 -1.07741 5.51238
lowerneck -22.9331 -0.569595 -9.38837
upperneck -0.833416 1.29839 6.57179
head 3.18881 0.99919 3.68243
rclavicle 1.95803e-014 -2.90226e-014
rhumerus -58.0292 -0.496976 -81.9364
rradius 90.1379
rwrist -15.9173
rhand -25.7165 31.937
rfingers 7.12502
rthumb 0.819522 1.95883
lclavicle 1.95803e-014 -2.90226e-014
lhumerus -36.4565 -23.0554 90.0948
lradius 111.831
lwrist 22.1209
lhand -17.339 14.727
lfingers 7.12502
lthumb 8.90819 44.5189
rfemur -53.29 2.92918 17.0239
rtibia 65.5751
rfoot -10.2762 -2.29169
rtoes -16.5352
lfemur -11.0006 -6.83028 -25.9514
ltibia 59.8505
lfoot 19.3739 -12.8819
ltoes -8.0179
